<svg xmlns="http://www.w3.org/2000/svg" width="1200" height="630" viewBox="0 0 1200 630">
  <defs>
    <linearGradient id="g" x1="0" y1="0" x2="1" y2="1">
      <stop offset="0%" stop-color="#ff7ac8" />
      <stop offset="50%" stop-color="#ff4763" />
      <stop offset="100%" stop-color="#ffd6e7" />
    </linearGradient>
  </defs>
  <rect width="1200" height="630" fill="url(#g)" />
  <g fill="#fff" opacity="0.18">
    <circle cx="160" cy="140" r="80" />
    <circle cx="1040" cy="120" r="90" />
    <circle cx="1080" cy="520" r="120" />
  </g>
  <g transform="translate(220 120)" fill="white">
    <path d="M380 420c-140-110-240-190-240-300 0-70 54-120 120-120 46 0 88 24 120 62 32-38 74-62 120-62 66 0 120 50 120 120 0 110-100 190-240 300z" />
  </g>
  <text x="600" y="460" text-anchor="middle" font-family="'Fraunces', serif" font-size="64" fill="#2a1c2b">Valentine Surprise</text>
  <text x="600" y="520" text-anchor="middle" font-family="'Nunito', sans-serif" font-size="28" fill="#2a1c2b">Create your playful, personalized link</text>
</svg>
